<svg width="4884" height="4884" viewBox="0 0 4884 4884" fill="none" xmlns="http://www.w3.org/2000/svg">
<path d="M4884 0H0V4884H4884V0Z" fill="#314648"/>
<path d="M2533.57 1688.09C2537.67 1685.53 2539.35 1679.46 2536.52 1675.35C2535.19 1673.3 2533.12 1671.85 2530.74 1671.3C2528.36 1670.75 2525.86 1671.14 2523.77 1672.4C2519.66 1674.97 2517.98 1681.02 2520.83 1685.14C2522.16 1687.19 2524.23 1688.64 2526.61 1689.19C2528.98 1689.74 2531.48 1689.35 2533.57 1688.09Z" fill="#FFBD6E"/>
<path d="M2954.82 1626.58C2965.44 1609.79 2974.07 1591.82 2980.55 1573.04C2983.71 1563.9 2986.3 1554.57 2988.26 1545.11C2989.51 1539.08 2990.82 1533.08 2992.61 1527.18C2993.21 1525.36 2993.8 1523.53 2994.46 1521.67L2994.64 1521.14C2995.11 1519.82 2993.86 1523.07 2994.28 1522.11L2994.76 1520.87C2995.14 1519.92 2995.5 1518.96 2995.92 1518.08C2997.41 1514.6 2999.22 1511.28 3001.37 1508.16L2999.97 1510.12C3001.55 1507.85 3003.39 1505.8 3005.48 1504.01L3003.57 1505.6C3004.91 1504.5 3006.4 1503.58 3007.95 1502.85L3005.68 1503.88C3007 1503.31 3008.34 1502.9 3009.74 1502.66L3007.35 1503.04C3008.51 1502.86 3009.65 1502.8 3010.81 1502.85C3012.42 1502.94 3010.12 1502.88 3009.76 1502.74C3010.09 1502.81 3010.45 1502.87 3010.78 1502.9C3011.4 1503.01 3012.06 1503.16 3012.68 1503.32C3013.58 1503.58 3015.66 1504.64 3012.77 1503.27C3013.46 1503.58 3014.14 1503.85 3014.8 1504.18C3016.32 1504.92 3017.81 1505.78 3019.21 1506.76L3017.24 1505.37C3019.29 1506.82 3021.17 1508.52 3022.78 1510.44L3021.2 1508.52C3022.78 1510.47 3024.12 1512.6 3025.16 1514.88L3024.15 1512.62C3025.37 1515.42 3026.23 1518.37 3026.71 1521.38L3026.32 1519.02C3027.04 1523.89 3027.16 1528.83 3026.68 1533.74C3026.47 1536.12 3026.92 1531.81 3026.68 1533.74C3026.59 1534.39 3026.53 1535.04 3026.44 1535.69C3026.26 1537 3026.08 1538.3 3025.85 1539.59C3025.43 1542.1 3024.95 1544.59 3024.42 1547.08C3022.21 1557.52 3019.62 1567.95 3017.21 1578.37C3014.23 1591.18 3011.05 1603.94 3007.26 1616.58C3005.36 1622.84 3003.39 1629 3001.16 1635.17L3000.38 1637.26C3001.31 1634.7 3000.47 1637.05 3000.24 1637.67C2999.61 1639.33 2998.95 1640.99 2998.3 1642.63C2997.11 1645.67 2995.83 1648.68 2994.52 1651.68C2988.89 1664.67 2981.98 1677.08 2973.93 1688.72L2975.31 1686.77C2967.54 1697.93 2958.33 1708.02 2947.92 1716.78L2949.84 1715.2C2944.96 1719.23 2939.81 1722.94 2934.43 1726.28C2930.33 1728.84 2928.65 1734.92 2931.48 1739.02C2932.82 1741.06 2934.89 1742.51 2937.26 1743.06C2939.64 1743.61 2942.13 1743.22 2944.23 1741.97C2952.69 1737.15 2961.46 1732.92 2970.32 1728.91L2968.05 1729.93C2990.59 1719.75 3013.96 1710.94 3034.87 1697.57C3041.03 1693.57 3046.93 1689.19 3052.53 1684.44L3050.59 1686.03C3056.85 1680.87 3063.67 1676.29 3069.21 1670.33C3071.89 1667.46 3074.12 1664.24 3076.56 1661.14L3084.1 1651.51C3093.72 1639.09 3103.96 1627.16 3114.8 1615.76C3121.08 1609.26 3127.73 1603.1 3134.66 1597.32L3132.76 1598.91C3136.24 1596.18 3139.88 1593.67 3143.69 1591.41C3147.56 1588.95 3151.61 1586.75 3155.78 1584.83L3153.49 1585.86C3157.89 1583.8 3162.54 1582.33 3167.33 1581.48L3164.95 1581.87C3166.74 1581.58 3168.52 1581.43 3170.34 1581.42C3171.2 1581.42 3172.1 1581.48 3172.99 1581.53C3169.39 1581.34 3172.46 1581.5 3173.41 1581.67C3174.33 1581.84 3175.08 1582 3175.82 1582.25C3176.24 1582.38 3176.65 1582.53 3177.1 1582.66C3173.97 1581.7 3175.67 1582.1 3176.45 1582.44C3178.17 1583.19 3179.81 1584.12 3181.33 1585.21L3179.36 1583.82C3180.82 1584.87 3182.16 1586.03 3183.41 1587.29L3180.67 1578.4C3179.96 1583 3178.89 1587.54 3177.52 1591.99C3177.19 1593.1 3176.83 1594.2 3176.45 1595.29C3176.24 1595.91 3175.34 1598.16 3176.42 1595.4L3175.85 1596.82C3174.99 1599.06 3174.03 1601.27 3173.02 1603.45C3168.97 1612 3164.18 1620.17 3158.67 1627.86L3160.07 1625.89C3156.4 1631.08 3152.5 1636.08 3148.48 1640.98C3146.13 1643.91 3143.57 1646.68 3141.42 1649.76C3139.64 1652.32 3138.54 1655.33 3136.78 1657.95L3138.15 1656C3136.21 1658.66 3133.98 1661.16 3131.86 1663.71L3125.4 1671.56C3121.11 1676.74 3116.83 1681.92 3112.45 1687.02C3103.66 1697.31 3094.61 1707.36 3084.9 1716.85C3079.54 1722.1 3073.97 1727.15 3068.16 1731.96L3070.1 1730.38C3057.95 1740.58 3044.55 1749.14 3030.16 1755.85L3032.46 1754.83C3029.03 1756.37 3025.73 1757.74 3022.27 1759C3017.75 1760.67 3014.35 1765.58 3016.05 1770.51C3017.63 1774.99 3022.69 1778.52 3027.57 1776.74C3050.15 1768.44 3069.98 1755.11 3087.94 1739.25C3105.06 1724.1 3120.13 1706.79 3134.72 1689.25C3138.83 1684.33 3142.88 1679.38 3146.96 1674.44C3149.41 1671.69 3151.64 1668.78 3153.69 1665.72C3155.12 1663.37 3156.23 1660.7 3157.8 1658.36L3156.43 1660.32C3159.11 1656.53 3162.39 1653.13 3165.28 1649.5C3168.14 1645.87 3170.97 1642.15 3173.62 1638.36C3179.36 1630.47 3184.43 1622.1 3188.72 1613.34C3193 1604.56 3196.13 1595.28 3198.07 1585.7C3198.28 1584.64 3198.48 1583.57 3198.6 1582.45C3198.87 1581.07 3198.84 1579.64 3198.51 1578.27C3198.16 1576.9 3197.53 1575.62 3196.64 1574.52C3196.13 1573.89 3195.59 1573.29 3195 1572.73C3193.21 1571.11 3191.31 1569.63 3189.25 1568.32C3186.07 1566.23 3182.52 1564.72 3178.8 1563.85C3164.09 1560.27 3148.93 1566.63 3136.48 1574.03C3129.72 1578.03 3123.35 1582.62 3117.42 1587.74C3109.53 1594.59 3102.02 1601.91 3095 1609.64C3087.88 1617.4 3081.15 1625.5 3074.57 1633.72C3071.2 1637.87 3067.93 1642.06 3064.65 1646.24C3061.55 1650.52 3058.25 1654.62 3054.73 1658.54C3053.01 1660.29 3051.19 1661.94 3049.31 1663.5L3051.22 1661.91C3046.42 1665.87 3041.48 1669.45 3036.87 1673.53L3038.77 1671.94C3024.33 1683.56 3007.77 1692.1 2990.94 1699.71L2993.21 1698.69C2973.47 1707.6 2953.19 1715.49 2934.33 1726.22L2944.13 1741.91C2973.53 1723.66 2994.64 1695.27 3008.96 1664.17C3023.31 1633.07 3031.03 1599.94 3038.68 1566.8C3041.72 1553.72 3045.26 1540.63 3045.35 1527.11C3045.53 1520.33 3044.34 1513.57 3041.78 1507.27C3040.02 1503.2 3037.64 1499.44 3034.69 1496.12C3032.1 1493.33 3029.12 1490.96 3025.82 1489.07C3019.35 1485.04 3011.64 1483.54 3004.17 1484.85C2998.18 1485.98 2992.73 1489.81 2988.74 1494.32C2980.55 1503.55 2976.29 1515.93 2973.2 1527.65C2971.83 1532.78 2970.83 1537.97 2969.69 1543.16C2967.99 1550.88 2965.88 1558.5 2963.38 1566C2962.77 1567.84 2962.16 1569.67 2961.49 1571.47C2961.31 1571.96 2961.12 1572.45 2960.96 1572.94C2961.75 1570.58 2961.44 1571.68 2961.24 1572.2C2960.79 1573.35 2960.36 1574.5 2959.91 1575.64C2958.51 1579.22 2957.01 1582.77 2955.43 1586.29C2952.1 1593.66 2948.43 1600.85 2944.41 1607.86C2942.46 1611.23 2940.46 1614.55 2938.38 1617.83C2935.79 1621.93 2937.97 1628.27 2942.27 1630.32C2947.1 1632.59 2951.98 1630.81 2954.75 1626.43L2954.82 1626.58Z" fill="#FFBD6E"/>
<path d="M2852.8 1662.92C2846.97 1673.77 2840.5 1684.27 2833.43 1694.35L2834.81 1692.4C2828.05 1702.01 2820.74 1711.22 2812.91 1719.98C2811.57 1721.48 2810.74 1723.38 2810.55 1725.4C2810.37 1727.41 2810.83 1729.42 2811.88 1731.15C2814.09 1734.35 2818.47 1736.56 2822.37 1735.11C2852.28 1723.88 2879.9 1707.31 2903.9 1686.22C2910.42 1680.52 2916.65 1674.53 2922.59 1668.23C2925.91 1664.7 2925.84 1658.35 2922.05 1655.17C2920.22 1653.54 2917.84 1652.7 2915.4 1652.8C2912.96 1652.9 2910.66 1653.95 2908.97 1655.71C2901.49 1663.64 2893.53 1671.11 2885.13 1678.06L2887.05 1676.48C2869.81 1690.75 2850.77 1702.69 2830.42 1712L2832.69 1710.97C2827.56 1713.3 2822.35 1715.43 2817.06 1717.39L2826.51 1732.52C2843.07 1713.92 2857.39 1693.43 2869.15 1671.47C2871.45 1667.22 2869.75 1661.1 2865.26 1658.99C2863.08 1657.89 2860.56 1657.69 2858.24 1658.42C2855.91 1659.14 2853.95 1660.74 2852.77 1662.88L2852.8 1662.92Z" fill="#FFBD6E"/>
<path d="M2851.06 1574.5C2852.97 1565.25 2855.3 1556.08 2857.14 1546.81C2858.05 1542.22 2858.84 1537.6 2859.4 1532.94C2859.77 1529.97 2860.04 1526.99 2860.26 1523.97C2860.28 1523.7 2860.31 1523.42 2860.31 1523.14C2860.33 1522.1 2860.2 1524.26 2860.2 1524.16C2860.2 1523.67 2860.26 1523.17 2860.39 1522.69C2860.56 1521.63 2860.75 1520.58 2860.96 1519.53C2861.18 1518.47 2861.52 1517.16 2861.87 1515.98C2862.03 1515.44 2862.22 1514.91 2862.34 1514.4C2862.62 1513.52 2861.98 1515.56 2861.93 1515.49C2861.88 1515.42 2862.23 1514.72 2862.28 1514.6C2863.18 1512.41 2864.31 1510.33 2865.66 1508.39L2864.28 1510.36C2865.46 1508.7 2866.81 1507.18 2868.32 1505.81L2866.4 1507.4C2867.68 1506.36 2869.08 1505.48 2870.59 1504.79L2868.32 1505.81C2869.64 1505.25 2871.03 1504.84 2872.45 1504.58L2870.08 1504.96C2871.2 1504.79 2872.33 1504.71 2873.45 1504.73C2875.72 1504.77 2871.67 1504.39 2873.17 1504.67C2873.65 1504.76 2874.13 1504.83 2874.6 1504.94C2875.08 1505.05 2875.53 1505.19 2875.99 1505.32C2877.46 1505.72 2873.62 1504.3 2875.68 1505.22C2876.68 1505.67 2877.62 1506.22 2878.51 1506.85L2876.56 1505.46C2878.75 1507.18 2880.72 1509.16 2882.43 1511.35L2880.84 1509.43C2883.16 1512.27 2885.11 1515.38 2886.64 1518.71L2885.61 1516.44C2887.28 1520.17 2888.47 1524.11 2889.13 1528.14L2888.75 1525.78C2889.43 1530.16 2889.68 1534.61 2889.48 1539.05C2889.44 1540.21 2889.37 1541.38 2889.28 1542.54C2889.24 1543.13 2889.19 1543.72 2889.15 1544.3C2888.99 1545.85 2889.42 1541.8 2889.16 1544.16C2888.9 1546.52 2888.61 1548.59 2888.26 1550.8C2886.86 1559.83 2884.76 1568.73 2883.13 1577.73C2882.26 1582.49 2884.98 1587.87 2890.06 1588.82C2894.79 1589.7 2900.23 1586.97 2901.15 1581.89C2903.26 1570.27 2906.12 1558.77 2907.31 1547C2908.11 1540.61 2908.2 1534.16 2907.6 1527.76C2906.85 1520.81 2904.91 1514.04 2901.85 1507.75C2900.56 1505.12 2899.01 1502.64 2897.21 1500.33C2895.07 1497.38 2892.59 1494.69 2889.83 1492.3C2886.63 1489.74 2882.91 1487.93 2878.92 1486.98C2874.94 1486.04 2870.8 1485.99 2866.79 1486.85C2850.5 1490.07 2842.77 1508.49 2841.81 1523.36C2841.75 1524.39 2841.65 1525.43 2841.59 1526.4C2841.56 1526.86 2841.47 1527.33 2841.47 1527.79C2841.45 1525.27 2841.55 1526.97 2841.48 1527.64C2841.26 1529.63 2840.99 1531.65 2840.68 1533.65C2840.04 1537.83 2839.24 1541.97 2838.38 1546.09C2836.67 1554.18 2834.68 1562.2 2833.01 1570.3C2832.02 1575.02 2834.98 1580.43 2839.93 1581.38C2844.89 1582.33 2849.97 1579.48 2851.03 1574.45L2851.06 1574.5Z" fill="#FFBD6E"/>
<path d="M2531.32 1689.13C2539.06 1687.56 2546.79 1686.15 2554.53 1684.91L2552.17 1685.3C2585.73 1679.91 2619.67 1677.43 2653.63 1676.37C2662.4 1676.09 2671.18 1675.91 2679.95 1675.8C2688.82 1675.69 2697.73 1675.38 2706.6 1675.72C2708.62 1675.79 2710.63 1675.92 2712.64 1676.08L2715.35 1676.3C2717.34 1676.51 2713.18 1676.07 2715.15 1676.28L2716.72 1676.47C2720.77 1676.94 2724.81 1677.52 2728.83 1678.22C2736.63 1679.54 2744.38 1681.19 2752.13 1682.79C2761.26 1684.68 2770.42 1686.47 2779.66 1687.7C2782.93 1688.13 2786.13 1688.51 2789.34 1687.35C2792.31 1686.26 2795.01 1684.52 2797.23 1682.26C2800.15 1679.42 2802.15 1675.75 2805.26 1673.07C2806.89 1671.29 2807.76 1668.95 2807.69 1666.54C2807.62 1664.09 2806.57 1661.77 2804.79 1660.08C2803 1658.4 2800.63 1657.5 2798.18 1657.56C2795.72 1657.78 2793.41 1658.84 2791.64 1660.56C2788.2 1663.52 2786.1 1667.7 2782.62 1670.63L2784.54 1669.04C2783.87 1669.56 2783.15 1670.01 2782.38 1670.38L2784.64 1669.35C2784 1669.63 2783.32 1669.83 2782.63 1669.96L2784.99 1669.58C2784.53 1669.57 2784.06 1669.61 2783.61 1669.69L2784.91 1669.82L2783.78 1669.68C2782.84 1669.56 2781.89 1669.41 2780.97 1669.29C2778.75 1668.98 2776.54 1668.63 2774.34 1668.26C2770.23 1667.56 2766.12 1666.79 2762.02 1665.95C2754.23 1664.39 2746.46 1662.68 2738.69 1661.18C2730.24 1659.58 2721.71 1658.4 2713.14 1657.66C2704.54 1656.94 2695.91 1657.14 2687.27 1657.22C2652.89 1657.52 2618.43 1658.73 2584.27 1662.42C2564.73 1664.54 2545.28 1667.49 2525.99 1671.39C2523.64 1672.1 2521.67 1673.71 2520.5 1675.86C2519.33 1678.02 2519.07 1680.55 2519.76 1682.9C2521.5 1688.01 2526.19 1690.16 2531.27 1689.13L2531.32 1689.13Z" fill="#FFBD6E"/>
<path d="M1742.96 1683.3C1857.72 1641.37 1975.37 1607.73 2091.35 1569.4C2119.6 1560.07 2147.38 1549.85 2174.29 1537.05C2196.23 1526.59 2217.31 1514.53 2238.8 1503.22C2258.16 1492.97 2277.99 1483.77 2299.19 1478C2324.37 1471.16 2350.49 1469.49 2376.48 1470.59C2379.92 1470.73 2383.34 1470.92 2386.75 1471.15C2388.87 1471.28 2390.98 1471.42 2393.13 1471.63C2393.13 1471.63 2400.15 1472.4 2396.34 1471.91C2399.3 1472.3 2402.23 1472.81 2405.14 1473.43C2413.29 1475.17 2421.34 1477.46 2429.33 1479.83C2450.64 1486.14 2471.69 1493.4 2492.68 1500.68C2514.96 1508.42 2537.2 1516.35 2559.51 1524.02C2575.85 1529.64 2592.25 1535.56 2609.06 1539.7C2638.22 1546.83 2668.22 1551.35 2697.77 1556.4C2725.22 1561.06 2752.77 1565.5 2780.2 1570.34C2810.69 1575.73 2840.91 1582.69 2871.69 1586.21C2884.25 1587.69 2899.03 1588.46 2910.39 1594.63C2921.45 1600.69 2931.13 1613.54 2931.69 1626.39C2932.87 1655.69 2891 1657.97 2870.43 1658.45C2837.1 1659.22 2803.54 1656.53 2770.18 1655.64C2705.64 1654.05 2641.1 1655 2576.99 1663.35C2559.95 1665.56 2542.97 1668.2 2526.03 1671.28C2515.42 1673.18 2518.84 1689.47 2528.94 1689.4C2590.78 1689.08 2658.97 1690.81 2715.59 1716.51C2744.32 1729.56 2768.43 1751.02 2798.11 1762.05C2819.7 1770.09 2841.91 1771.66 2864.66 1773.31C2897.75 1775.66 2930.46 1782.19 2963.55 1784.14C2994.55 1785.98 3024.33 1779.02 3053.24 1768.13C3079.51 1758.24 3107.89 1749.03 3135.86 1745.9C3147.8 1744.56 3160.13 1746.73 3171.8 1749.17C3178.47 1750.52 3185.29 1752.11 3191.25 1755.3C3191.96 1755.67 3194.02 1756.94 3194.11 1756.98C3194.64 1757.3 3195.15 1757.72 3195.57 1758.22C3196.76 1758.91 3195.77 1759.76 3195.86 1758.03C3195.83 1758.87 3196.07 1758.83 3195.12 1760.55C3190.62 1768.61 3181.51 1772.39 3173.2 1775.41C3161.38 1779.72 3149.26 1783.63 3137.34 1787.64L3065.78 1812.06L2994.25 1836.48C2983.02 1840.33 2971.87 1844.15 2960.91 1848.74C2951.77 1852.59 2942.76 1855.9 2932.74 1856.06C2899.76 1856.63 2867.71 1850.16 2835.01 1847.48C2814.4 1845.82 2793.67 1846.16 2773.12 1848.48C2751.38 1850.91 2729.83 1855.47 2708.2 1859.02C2668.54 1865.52 2625.82 1872.93 2586.27 1862.37C2569.84 1857.98 2554.39 1850.9 2538.74 1844.32C2518.7 1835.86 2498.22 1828.56 2477.61 1821.57C2433.02 1806.45 2387.84 1793.24 2342.08 1781.94C2298.24 1771.13 2253.78 1760.98 2208.66 1757.51C2187.13 1755.85 2165.22 1755.78 2143.8 1758.87C2125.62 1761.5 2107.79 1766.14 2090.2 1771.41C2052.61 1782.69 2014.88 1795.95 1979.04 1811.99C1939.33 1829.76 1902.37 1852.45 1864.79 1874.21C1845.1 1885.62 1825.16 1896.54 1804.72 1906.54L1815.88 1907.57C1773.35 1860.9 1748.4 1794.89 1745.2 1732.18C1744.17 1713.51 1745.53 1694.79 1749.24 1676.46C1751.65 1664.77 1733.66 1660.62 1731.23 1672.3C1716.93 1741.52 1735.41 1816.57 1770.74 1876.74C1780.06 1892.66 1791.01 1907.57 1803.42 1921.23C1806.34 1924.44 1811.12 1923.97 1814.58 1922.27C1855.2 1902.39 1893.35 1878.23 1932.75 1856.13C1970.03 1835.21 2008.82 1818.99 2048.99 1804.64C2084.65 1791.89 2121.7 1778.63 2159.68 1775.77C2204.69 1772.37 2249.48 1780.12 2293.39 1789.66C2340.14 1799.82 2386.4 1812 2432.15 1826.2C2455 1833.3 2477.7 1840.89 2500.24 1848.96C2518.68 1855.57 2536.46 1863.73 2554.69 1870.94C2570.84 1877.4 2587.38 1882.68 2604.74 1884.75C2626.27 1887.29 2647.88 1885.67 2669.31 1883.2C2712.85 1878.18 2755.83 1866.57 2799.73 1865.16C2836.68 1863.97 2872.86 1871.82 2909.65 1873.93C2927.14 1874.93 2943.72 1875.49 2960.37 1869.01C2983.23 1860.13 3006.25 1852.07 3029.48 1844.15C3077.96 1827.59 3126.5 1811.17 3174.96 1794.47C3190.92 1788.95 3215.49 1778.25 3214.45 1757.53C3213.73 1742.71 3196.13 1736.45 3184.22 1733.19C3170.79 1729.35 3156.91 1727.26 3142.94 1726.98C3128.71 1726.95 3114.03 1730.94 3100.33 1734.37C3085.85 1737.99 3071.41 1742.11 3057.32 1747C3041.6 1752.47 3026.29 1758.54 3010 1762.18C2982.72 1768.23 2955.99 1765.53 2928.71 1761.88C2910.18 1759.38 2891.63 1757.08 2873 1755.54C2858.26 1754.31 2844.19 1754.09 2829.84 1751.61C2813.78 1749.04 2798.34 1743.53 2784.29 1735.34C2771.01 1727.88 2758.61 1718.95 2745.45 1711.26C2700.03 1684.69 2647.51 1676.16 2595.62 1672.74C2573.24 1671.27 2550.82 1670.85 2528.38 1671L2531.32 1689.13C2597.85 1677.22 2665.11 1673.01 2732.62 1673.58C2767.04 1673.89 2801.44 1675.11 2835.82 1676.28C2865.7 1677.31 2899.76 1680.14 2927.04 1665.31C2939.06 1658.77 2947.91 1647.52 2949.72 1633.78C2951.89 1617.89 2945.18 1602.61 2934.62 1590.87C2914.63 1568.66 2884.05 1569.9 2856.74 1565.91C2839.72 1563.45 2822.82 1559.34 2805.88 1556.2C2790.88 1553.42 2775.84 1550.77 2760.76 1548.24C2732.51 1543.44 2704.24 1538.95 2676.03 1533.81C2650.76 1529.24 2625 1525.49 2600.4 1518.04C2580.68 1512.08 2561.28 1505.17 2541.86 1498.37C2499.62 1483.58 2457.3 1466.74 2413.7 1456.37C2390.74 1450.93 2365.86 1450.82 2342.48 1452.34C2318.1 1453.81 2294.09 1459.01 2271.28 1467.73C2249.56 1476.15 2229.1 1487.4 2208.66 1498.5C2185.09 1511.32 2161.29 1523.62 2136.4 1533.73C2108.83 1544.92 2080.26 1553.67 2051.96 1562.81C2021.21 1572.74 1990.39 1582.48 1959.58 1592.23C1898.48 1611.59 1837.31 1630.81 1776.73 1651.74C1763.71 1656.24 1750.72 1660.85 1737.75 1665.56C1726.6 1669.62 1731.84 1687.38 1743.02 1683.3L1742.96 1683.3Z" fill="#FFBD6E"/>
<path d="M3771.64 1445.6C3771.88 1438.89 3764.28 1436.85 3760.17 1441.37C3749.78 1452.78 3734.2 1458.03 3720.3 1463.67C3704.69 1469.99 3689.44 1477.36 3678.72 1490.81C3672.53 1498.55 3668.48 1507.59 3666.25 1517.16C3646.53 1531.23 3628.93 1548.3 3614.16 1567.55C3629.29 1512.43 3642.24 1456.7 3653.38 1400.65C3682.86 1401.79 3710.68 1389.11 3730.13 1366.77C3748.92 1345.2 3763.3 1312.04 3754.4 1283.45C3751.95 1275.57 3740.73 1273.06 3737.39 1281.95C3733.55 1292.16 3726.76 1300.92 3718.6 1308.62C3724.97 1276.63 3718.75 1241.04 3714.1 1210.08C3713.03 1202.96 3704.87 1201.34 3699.69 1204.9C3676.94 1220.45 3654.15 1244.39 3644.33 1271.67C3637.27 1261.5 3629.47 1251.77 3621.75 1242.38C3617.11 1236.76 3606.24 1239.45 3606.12 1247.31C3605.88 1264.54 3598.5 1280.88 3595.13 1297.65C3591.97 1313.41 3590.87 1330.12 3594.47 1345.92C3599.57 1368.24 3614.55 1388.78 3636.2 1396.73C3620.98 1473.73 3602.1 1550.34 3578.9 1625.56C3576.73 1599.9 3572.74 1574.41 3566.87 1549.33C3564.49 1539.22 3561.78 1529.19 3558.83 1519.24C3575.83 1499.31 3573.12 1471.43 3565.59 1447.74C3558.41 1425.26 3546.77 1404.3 3531.34 1386.41C3522.58 1376.25 3512.58 1367.09 3501.71 1359.21C3497.18 1355.91 3490.93 1360.15 3491.82 1365.53C3494.06 1378.89 3491.52 1392.34 3489.65 1405.59C3487.86 1418.41 3486.97 1431.25 3487.83 1444.18C3489.38 1467.85 3498.31 1490.77 3516.75 1506.33C3525.06 1513.34 3535.15 1518.19 3545.87 1519.94C3557.49 1558.57 3564.75 1598.49 3567.32 1638.75C3567.73 1645.61 3568 1652.49 3568.15 1659.36C3541.76 1739.87 3510.17 1818.6 3472.46 1894.34C3474.31 1880.09 3475.47 1865.76 3475.83 1851.4C3476.48 1826.97 3475.71 1801.7 3471.27 1777.62C3469.43 1767.53 3466.15 1757.42 3459.63 1749.42C3463.95 1737.75 3460.22 1724.43 3452.99 1714.63C3444.32 1702.9 3430.68 1696.08 3417.88 1689.87C3414.78 1688.39 3411.77 1692.26 3413.11 1695.06C3416.33 1701.82 3416.39 1709.37 3416.6 1716.7C3416.8 1723.65 3417.25 1730.47 3419.66 1737.06C3421.96 1743.26 3426.19 1748.5 3432.2 1751.34C3438.48 1754.32 3445.66 1754.05 3452.45 1753.45C3452.78 1753.67 3453.17 1753.85 3453.55 1753.99C3459.06 1760.7 3461.86 1769 3463.53 1777.53C3465.73 1788.72 3466.69 1800.27 3467.46 1811.63C3469.16 1836.15 3468.59 1860.85 3465.94 1885.27C3464.81 1895.59 3463.32 1905.86 3461.45 1916.05C3441.34 1954.92 3419.6 1992.98 3396.05 2030C3374.55 2063.8 3351.5 2096.69 3326.96 2128.48C3335.15 2103.8 3339.32 2077.79 3338.96 2051.71C3338.84 2042.24 3338.15 2032.8 3336.9 2023.42C3346.49 2019.89 3352.57 2011.42 3354.92 2001.7C3356.08 1996.88 3356.62 1991.96 3356.8 1987.02C3356.89 1984.31 3356.83 1981.56 3356.5 1978.86C3356.35 1977.54 3356.11 1976.22 3355.75 1974.93C3355.49 1973.84 3354.62 1972.29 3355.04 1971.19C3356.83 1966.51 3350.07 1964.29 3347.92 1968.53C3345.69 1972.93 3343.07 1977.14 3340.12 1981.12C3337.35 1984.89 3334.19 1988.43 3331.87 1992.53C3331.22 1993.68 3330.65 1994.86 3330.14 1996.08C3323.95 1985.27 3312.27 1978.2 3300.33 1974.44C3297.15 1973.44 3294.29 1976.5 3295.57 1979.63C3299.68 1989.49 3299.95 2000.75 3305.6 2010C3310.79 2018.55 3319.6 2023.79 3329.37 2024.38C3334.31 2061.45 3329.99 2099.54 3316.86 2134.58C3315.04 2139.41 3313.08 2144.15 3310.93 2148.85C3255.19 2218.24 3192.2 2281.88 3122.72 2337.31C3130.7 2325.31 3138.06 2312.94 3144.82 2300.24C3160.99 2269.83 3173.74 2237.66 3182.64 2204.38C3187.44 2186.39 3191.1 2168.11 3193.69 2149.67C3211.05 2145.66 3215.82 2124.97 3214.03 2109.42C3212.18 2093.42 3203.43 2078.49 3190.41 2069.05C3186.39 2066.14 3182.28 2072.18 3186.01 2075.26C3187.88 2076.8 3185.89 2082.1 3185.38 2083.84C3184.28 2087.6 3182.82 2091.25 3181.33 2094.87C3178.29 2102.28 3175.11 2109.64 3173.74 2117.59C3171.68 2129.46 3175.31 2143.05 3186.1 2149.16C3176.95 2214.41 3153.22 2277.49 3116.89 2332.5C3112 2339.86 3106.94 2347.38 3101.07 2354.18C3055.78 2388.55 3007.83 2419.45 2957.39 2446.19C2908.12 2472.33 2856.64 2494.46 2803.59 2511.7C2742.29 2531.61 2673.3 2550.92 2609.79 2530.14C2598.97 2526.6 2592.76 2543.21 2603.62 2546.75C2660.68 2565.42 2720.61 2554.3 2776.89 2538.23C2826.27 2524.13 2874.48 2506.02 2920.97 2484.2C3013.04 2440.99 3098.39 2383.71 3174.87 2316.78C3211.05 2296.78 3251.14 2284.02 3292.26 2279.45C3306.32 2277.89 3320.43 2277.39 3334.55 2277.8C3335.71 2288.06 3344.44 2297.11 3353.1 2301.82C3364.39 2307.96 3377.79 2308.63 3390 2304.97C3391.82 2304.42 3393.16 2303.08 3393.07 2301.05C3393.01 2299.31 3391.55 2297.44 3389.64 2297.44C3381.13 2297.45 3378.72 2289.23 3375.77 2282.73C3373.86 2278.49 3371.03 2274.26 3367.19 2271.68C3367.61 2271.33 3368.02 2271.04 3368.38 2270.68C3375.86 2263.43 3379.43 2253.38 3381.01 2243.3C3381.51 2240.1 3377.14 2237.85 3374.78 2240.07C3367.99 2246.51 3358.2 2247.76 3350.13 2252.01C3343.22 2255.66 3336.87 2262.29 3336.4 2270.23C3288.3 2268.69 3240.03 2278.22 3196.1 2297.73C3275.56 2224.7 3344.23 2141.49 3402.84 2051.49C3433.18 2035.26 3465.26 2020.63 3500.1 2020.08C3510.17 2019.92 3520.17 2020.94 3529.91 2023.45C3541.73 2035.66 3559.33 2044.55 3576.55 2039.81C3592.81 2035.34 3606.71 2022.18 3615.65 2008.04C3616.72 2007.23 3617.17 2006.06 3617.7 2004.53C3619.13 2000.62 3613.3 1997.19 3611.06 2001.01C3610.91 2001.26 3610.76 2001.49 3610.62 2001.74C3594.45 2004.52 3578.33 1996.68 3561.98 1998.51C3554.63 1999.34 3547.54 2002.24 3541.5 2006.48C3538.99 2008.25 3533.93 2012.08 3531.58 2016.11C3491.46 2005.97 3450.22 2019.13 3414.15 2037.09C3413.14 2037.59 3412.13 2038.12 3411.12 2038.64C3449.65 1978.04 3483.72 1914.47 3513.53 1848.97C3540.78 1824.24 3573.57 1805.48 3608.71 1794.61C3619.49 1791.28 3630.48 1788.74 3641.62 1786.87C3646.89 1795.65 3655.58 1801.68 3665.17 1805.11C3675.48 1808.8 3687.51 1810.44 3697.07 1804.02C3699.54 1802.37 3698.41 1798.49 3695.97 1797.55C3684.74 1793.33 3675.03 1785.53 3668.66 1775.36C3678.52 1766.94 3685.54 1755.21 3688.13 1742.35C3688.91 1738.49 3683.28 1736.98 3681.26 1739.83C3678.22 1744.06 3674.26 1747.25 3669.52 1749.41C3664.64 1751.64 3659.43 1753.05 3654.81 1755.91C3646.26 1761.23 3640.37 1769.61 3639.56 1779.5C3596.26 1786.91 3555.02 1805.55 3520.71 1832.95C3529.97 1811.96 3538.84 1790.79 3547.27 1769.46C3567.88 1717.27 3585.99 1664.16 3601.95 1610.39C3614.67 1585.78 3631.67 1563.43 3652.16 1544.75C3658.29 1539.17 3664.73 1533.94 3671.4 1529.02C3671.93 1529.51 3672.56 1529.92 3673.36 1530.26C3690.37 1537.15 3710.8 1535.53 3726.4 1525.76C3734.92 1520.44 3741.62 1513 3747.75 1505.11C3753.98 1497.06 3759.37 1488.32 3763.54 1479.03C3768.24 1468.54 3771.16 1457.13 3771.64 1445.6ZM3710.98 1337.21C3720.45 1330.45 3729.98 1322.64 3737.96 1313.65C3735.07 1328.3 3727.3 1342.46 3718.18 1353.55C3703.02 1372.01 3680.96 1382.95 3657.31 1383C3663.68 1359.67 3693.08 1350.04 3710.98 1337.21ZM3698.89 1227.66C3703.98 1260.02 3709.4 1298.44 3694.18 1326.83C3694.09 1327 3694.06 1327.16 3693.97 1327.32C3689 1330.51 3684.05 1333.48 3679.35 1336.3C3676.76 1337.84 3674.2 1339.44 3671.73 1341.07C3670.89 1323.93 3665.38 1307.97 3657.43 1292.94C3660.38 1267.39 3678.78 1244.27 3698.89 1227.66ZM3609.93 1327.72C3609.28 1307.52 3616.87 1288.95 3621.07 1269.81C3627.77 1278.43 3634.11 1287.38 3639.47 1296.76C3639.68 1299.47 3640.96 1301.53 3642.78 1302.9C3651.06 1319.22 3655.82 1336.83 3653.38 1356.18C3647.42 1362.62 3642.81 1370.1 3640.25 1379.18C3620.8 1370.35 3610.65 1349.18 3609.93 1327.72ZM3551.83 1507.93C3551.71 1507.92 3551.65 1507.88 3551.53 1507.88C3532.14 1506.39 3516.27 1492.05 3508.17 1475.02C3498.08 1453.84 3499.03 1429.36 3502.24 1406.7C3503.58 1397.22 3505.04 1387.73 3505.22 1378.21C3517.67 1388.96 3528.54 1401.59 3537.09 1415.63C3548.43 1434.2 3557.64 1456.23 3558.98 1478.17C3559.6 1488.36 3557.7 1499.41 3551.83 1507.93ZM3452.84 1745.64C3452.63 1745.71 3452.48 1745.79 3452.3 1745.89C3446.14 1746.48 3439.2 1747 3433.78 1743.66C3429.1 1740.77 3426.72 1735.54 3425.53 1730.39C3423.27 1720.65 3424.58 1710.5 3422.76 1700.8C3431.52 1705.3 3439.97 1710.57 3446.17 1718.26C3452.27 1725.87 3455.58 1736.21 3452.84 1745.64ZM3311.02 2004.18C3308.02 1997.94 3306.8 1991.08 3305.04 1984.4C3315.28 1989.01 3324.43 1996.55 3326.57 2008.15C3326.69 2008.77 3326.9 2009.27 3327.22 2009.7C3327.17 2012.05 3327.37 2014.44 3327.85 2016.79C3320.58 2015.72 3314.24 2010.87 3311.02 2004.18ZM3184.25 2107.93C3186.9 2100.75 3190.32 2093.87 3192.47 2086.52C3192.91 2085.1 3193.3 2083.62 3193.6 2082.14C3200.12 2089.34 3204.5 2098.35 3206.14 2108C3208.22 2120.25 3206.08 2139.91 3190.98 2142.55C3190.71 2142.61 3190.44 2142.69 3190.17 2142.78C3177.58 2136.44 3180.23 2118.9 3184.25 2107.93ZM3356.62 2257.37C3361.47 2255.27 3366.62 2253.72 3371.36 2251.43C3369.72 2256.46 3367.22 2261.25 3363.47 2264.89C3358.17 2270.04 3351.11 2272.05 3343.96 2271.96C3343.43 2264.82 3350.69 2259.93 3356.62 2257.37ZM3359.09 2276.75C3359.12 2276.76 3359.18 2276.77 3359.24 2276.78C3366.51 2277.19 3368.95 2286.59 3371.51 2291.99C3372.85 2294.83 3374.55 2297.44 3376.63 2299.59C3370.29 2299.87 3363.94 2298.79 3358.08 2295.95C3351.85 2292.92 3344.71 2286.77 3342.62 2279.59C3348.25 2279.82 3353.94 2278.92 3359.09 2276.75ZM3335.56 2015.73C3335.47 2015.57 3335.38 2015.42 3335.3 2015.29C3333.98 2007.78 3335.59 2000.33 3340 1993.91C3342.5 1990.28 3345.42 1986.93 3347.92 1983.29C3348.34 1982.71 3348.7 1982.08 3349.08 1981.48C3349.14 1981.94 3349.2 1982.41 3349.23 1982.88C3349.38 1987.52 3348.99 1992.29 3348.22 1996.85C3346.85 2004.99 3342.98 2012.13 3335.56 2015.73ZM3539.26 2018.73C3539.77 2018.12 3540.3 2017.53 3540.87 2016.95C3542.12 2015.7 3543.43 2014.52 3544.83 2013.45C3547.39 2011.48 3550.19 2009.89 3553.14 2008.63C3560.08 2005.7 3567.43 2005.4 3574.82 2006.23C3582.47 2007.09 3589.95 2008.95 3597.63 2009.67C3600.1 2009.91 3602.61 2009.99 3605.05 2009.93C3597.57 2019.73 3587.66 2028.38 3576.16 2032.06C3562.91 2036.3 3549.12 2030.59 3539.05 2021.76C3539.29 2020.9 3539.23 2019.98 3538.85 2019.2C3538.99 2019.05 3539.11 2018.88 3539.26 2018.73ZM3684.95 1800.76C3678.93 1801.48 3672.29 1799.67 3667.05 1797.72C3660.5 1795.27 3654.33 1791.4 3650.08 1785.88C3654.51 1784.42 3658.71 1782.37 3662.58 1779.86C3668.3 1788.58 3675.92 1795.74 3684.95 1800.76ZM3662.49 1760.42C3666.9 1758.43 3671.64 1757.11 3675.84 1754.67C3669.79 1765.97 3659.31 1774.82 3647.1 1778.91C3648.11 1770.51 3654.96 1763.83 3662.49 1760.42ZM3731.14 1505.3C3717.86 1520.01 3697.46 1525.83 3678.75 1518.76C3682.48 1503.64 3692.93 1491.44 3706.48 1483.94C3720 1476.43 3735.04 1472.25 3748.77 1465.1C3751.51 1463.67 3754.1 1462.08 3756.63 1460.41C3752.34 1477.17 3742.72 1492.45 3731.14 1505.3Z" fill="#FFBD6E"/>
<path d="M3678.31 1642.45C3678.25 1639.93 3675.63 1636.98 3672.92 1638.68C3661.03 1646.05 3646.89 1647.66 3634.35 1653.51C3623.06 1658.78 3610.68 1669.24 3612.43 1683.07C3612.46 1683.27 3612.52 1683.42 3612.55 1683.61C3612.4 1685.13 3613.06 1686.75 3614.79 1687.57C3628.87 1694.29 3646.09 1692.12 3658.68 1683.13C3671.49 1674 3678.63 1657.97 3678.31 1642.45ZM3654.48 1676.83C3644.63 1684.18 3631.28 1685.87 3619.91 1681.5C3619.28 1675.92 3623.12 1670.63 3627.06 1667.09C3631.25 1663.32 3636.32 1660.75 3641.53 1658.7C3650.97 1654.94 3661.09 1652.91 3670.3 1648.63C3668.9 1659.66 3663.57 1670.03 3654.48 1676.83Z" fill="#FFBD6E"/>
<path d="M3404.86 1881.55C3404.45 1873.79 3402.33 1866.39 3399.03 1859.37C3392.83 1846.18 3383.33 1834.75 3378.48 1820.9C3377.44 1817.94 3372.25 1818.1 3371.48 1821.2C3369.04 1831.18 3366.95 1841.25 3365.37 1851.41C3363.92 1860.73 3362.25 1870.65 3364.54 1879.98C3368.29 1895.3 3381.19 1907.02 3396.61 1909.74C3396.91 1909.8 3397.21 1909.81 3397.45 1909.8C3399.56 1910.56 3402.42 1909.64 3402.87 1906.76C3404.12 1898.41 3405.31 1890.02 3404.86 1881.55ZM3371.45 1875.74C3370.17 1867.36 3371.9 1858.56 3373.21 1850.28C3374.07 1845.01 3375.08 1839.77 3376.21 1834.53C3380.89 1843.49 3386.79 1851.81 3391.31 1860.87C3394.53 1867.3 3396.73 1874.01 3397.27 1881.2C3397.78 1888.1 3396.94 1895.03 3395.93 1901.87C3383.48 1899.08 3373.36 1888.35 3371.45 1875.74Z" fill="#FFBD6E"/>
<path d="M1125.45 1464.8C1124.86 1457.96 1132.54 1455.5 1136.97 1459.93C1148.13 1471.09 1164.32 1475.71 1178.81 1480.8C1195.07 1486.51 1211.01 1493.31 1222.62 1506.55C1229.31 1514.17 1233.91 1523.21 1236.65 1532.88C1257.47 1546.33 1276.31 1562.92 1292.32 1581.89C1274.21 1526.27 1258.26 1469.92 1244.17 1413.15C1214.08 1415.74 1185.04 1404.11 1164.07 1382.2C1143.82 1361.05 1127.51 1327.85 1135.24 1298.19C1137.36 1290.02 1148.71 1286.91 1152.57 1295.84C1157 1306.09 1164.36 1314.73 1173.07 1322.2C1165.01 1289.8 1169.66 1253.11 1172.92 1221.24C1173.66 1213.9 1181.92 1211.85 1187.41 1215.24C1211.4 1230.04 1235.86 1253.42 1247.22 1280.84C1253.95 1270.11 1261.44 1259.78 1268.9 1249.81C1273.35 1243.84 1284.62 1246.06 1285.1 1254.09C1286.17 1271.7 1294.51 1288.05 1298.77 1305.03C1302.77 1320.99 1304.69 1338.03 1301.77 1354.35C1297.63 1377.42 1283.32 1399.13 1261.55 1408.31C1280.84 1486.3 1303.81 1563.72 1331.16 1639.5C1332.14 1613.16 1335 1586.91 1339.8 1560.99C1341.75 1550.53 1344.02 1540.15 1346.57 1529.84C1328.23 1510.28 1329.65 1481.64 1336.22 1457.06C1342.46 1433.73 1353.35 1411.74 1368.26 1392.71C1376.74 1381.89 1386.52 1372.04 1397.24 1363.47C1401.73 1359.88 1408.32 1363.91 1407.65 1369.45C1406.02 1383.22 1409.27 1396.85 1411.82 1410.31C1414.28 1423.32 1415.79 1436.41 1415.55 1449.68C1415.09 1473.95 1407.05 1497.82 1388.97 1514.61C1380.81 1522.18 1370.72 1527.63 1359.84 1529.92C1349.83 1569.99 1344.34 1611.14 1343.65 1652.44C1343.55 1659.47 1343.61 1666.52 1343.78 1673.54C1374.65 1754.59 1410.74 1833.56 1452.93 1909.18C1450.36 1894.7 1448.5 1880.1 1447.42 1865.44C1445.6 1840.49 1445.15 1814.62 1448.53 1789.78C1449.94 1779.38 1452.81 1768.89 1459.08 1760.39C1454.1 1748.67 1457.26 1734.87 1464.19 1724.5C1472.49 1712.09 1486.11 1704.46 1498.9 1697.5C1501.98 1695.83 1505.25 1699.64 1504.02 1702.57C1501.06 1709.64 1501.35 1717.36 1501.49 1724.87C1501.63 1731.99 1501.48 1738.98 1499.34 1745.83C1497.31 1752.28 1493.24 1757.84 1487.21 1761.04C1480.95 1764.38 1473.58 1764.45 1466.61 1764.17C1466.29 1764.41 1465.91 1764.61 1465.51 1764.77C1460.21 1771.9 1457.76 1780.52 1456.45 1789.32C1454.72 1800.87 1454.32 1812.72 1454.06 1824.38C1453.52 1849.53 1455.28 1874.75 1459.17 1899.6C1460.81 1910.09 1462.85 1920.51 1465.26 1930.85C1487.69 1969.62 1511.75 2007.48 1537.61 2044.2C1561.22 2077.72 1586.38 2110.23 1612.98 2141.55C1603.42 2116.71 1597.92 2090.33 1597.01 2063.64C1596.68 2053.95 1596.93 2044.26 1597.75 2034.62C1587.77 2031.46 1581.16 2023.1 1578.29 2013.28C1576.87 2008.41 1576.09 2003.4 1575.68 1998.36C1575.46 1995.59 1575.38 1992.79 1575.58 1990.01C1575.68 1988.64 1575.85 1987.29 1576.14 1985.95C1576.38 1984.82 1577.18 1983.19 1576.72 1982.09C1574.66 1977.39 1581.46 1974.8 1583.86 1979.03C1586.36 1983.42 1589.24 1987.6 1592.42 1991.52C1595.45 1995.25 1598.84 1998.72 1601.4 2002.79C1602.13 2003.94 1602.77 2005.12 1603.35 2006.34C1609.15 1994.99 1620.75 1987.2 1632.78 1982.78C1636.01 1981.6 1639.06 1984.6 1637.9 1987.86C1634.18 1998.13 1634.44 2009.65 1629.13 2019.38C1624.22 2028.38 1615.45 2034.16 1605.51 2035.24C1602.24 2073.37 1608.5 2112.11 1623.61 2147.3C1625.69 2152.15 1627.95 2156.9 1630.36 2161.61C1690.71 2229.86 1758.15 2291.89 1831.85 2345.22C1823.14 2333.34 1815 2321.04 1807.48 2308.38C1789.49 2278.07 1774.91 2245.79 1764.21 2212.19C1758.43 2194.03 1753.79 2175.52 1750.28 2156.8C1732.32 2153.53 1726.45 2132.61 1727.52 2116.62C1728.64 2100.17 1736.89 2084.49 1749.74 2074.21C1753.7 2071.05 1758.2 2077.01 1754.54 2080.35C1752.69 2082.01 1754.99 2087.34 1755.6 2089.09C1756.91 2092.88 1758.57 2096.54 1760.26 2100.17C1763.73 2107.6 1767.32 2114.97 1769.12 2123.03C1771.8 2135.07 1768.75 2149.13 1758 2155.91C1770.51 2222.17 1797.82 2285.52 1837.61 2340.02C1842.94 2347.31 1848.5 2354.76 1854.81 2361.43C1902.78 2394.38 1953.3 2423.66 2006.15 2448.57C2057.79 2472.92 2111.49 2493.07 2166.56 2508.13C2230.18 2525.53 2301.65 2541.95 2365.58 2517.65C2376.48 2513.51 2383.63 2530.19 2372.7 2534.33C2315.25 2556.17 2253.45 2547.69 2195.13 2533.97C2143.97 2521.94 2093.8 2505.74 2045.22 2485.68C1949 2445.94 1858.98 2391.48 1777.55 2326.74C1739.62 2308.04 1698.01 2296.92 1655.73 2294.23C1641.3 2293.32 1626.83 2293.49 1612.42 2294.58C1611.74 2305.13 1603.26 2314.8 1594.62 2320.04C1583.37 2326.86 1569.71 2328.19 1557.05 2325.03C1555.15 2324.56 1553.72 2323.25 1553.71 2321.18C1553.7 2319.39 1555.11 2317.41 1557.03 2317.32C1565.75 2316.91 1567.82 2308.4 1570.51 2301.61C1572.28 2297.18 1574.94 2292.72 1578.75 2289.89C1578.33 2289.56 1577.89 2289.29 1577.48 2288.93C1569.49 2281.89 1565.36 2271.78 1563.26 2261.55C1562.59 2258.31 1566.97 2255.79 1569.47 2257.94C1576.73 2264.2 1586.8 2265.01 1595.25 2268.96C1602.51 2272.37 1609.29 2278.84 1610.18 2286.94C1659.26 2283.04 1709.08 2290.46 1754.94 2308.29C1670.18 2237.45 1595.96 2155.68 1531.71 2066.5C1499.9 2051.37 1466.41 2037.95 1430.76 2039.07C1420.46 2039.39 1410.26 2040.92 1400.42 2043.95C1388.95 2057 1371.38 2066.94 1353.54 2062.93C1336.69 2059.14 1321.83 2046.35 1312.02 2032.32C1310.89 2031.55 1310.37 2030.37 1309.74 2028.84C1308.1 2024.91 1313.91 2021.12 1316.38 2024.92C1316.54 2025.17 1316.7 2025.4 1316.87 2025.65C1333.55 2027.71 1349.64 2018.91 1366.44 2019.99C1374.01 2020.49 1381.37 2023.12 1387.76 2027.16C1390.41 2028.84 1395.79 2032.52 1398.37 2036.52C1438.9 2024.23 1481.7 2035.7 1519.43 2052.31C1520.51 2052.78 1521.55 2053.28 1522.63 2053.75C1480.3 1993.65 1442.41 1930.3 1408.78 1864.76C1379.7 1840.8 1345.28 1823.21 1308.84 1813.78C1297.66 1810.89 1286.3 1808.82 1274.83 1807.46C1269.85 1816.69 1261.26 1823.27 1251.62 1827.24C1241.27 1831.51 1229.02 1833.76 1218.95 1827.66C1216.36 1826.09 1217.31 1822.07 1219.78 1820.99C1231.05 1816.14 1240.59 1807.69 1246.63 1796.99C1236.13 1788.86 1228.38 1777.2 1225.13 1764.18C1224.14 1760.27 1229.82 1758.45 1232.04 1761.27C1235.34 1765.44 1239.54 1768.52 1244.48 1770.5C1249.6 1772.54 1254.99 1773.73 1259.83 1776.44C1268.84 1781.46 1275.28 1789.75 1276.56 1799.82C1321.21 1805.31 1364.25 1822.37 1400.67 1848.74C1390.16 1827.72 1380.08 1806.51 1370.44 1785.11C1346.86 1732.74 1325.77 1679.31 1306.87 1625.11C1292.69 1600.56 1274.22 1578.53 1252.36 1560.41C1245.84 1555 1239.02 1549.97 1231.95 1545.26C1231.43 1545.79 1230.8 1546.24 1230.01 1546.62C1212.94 1554.49 1191.99 1553.81 1175.55 1544.58C1166.59 1539.55 1159.38 1532.26 1152.74 1524.49C1145.96 1516.57 1140.03 1507.89 1135.32 1498.59C1130 1488.09 1126.47 1476.57 1125.45 1464.8ZM1182.22 1351.06C1172.23 1344.6 1162.12 1337.08 1153.51 1328.28C1157.17 1343.11 1165.8 1357.22 1175.66 1368.11C1192.05 1386.26 1215.14 1396.38 1239.3 1395.3C1231.68 1371.75 1201.14 1363.31 1182.22 1351.06ZM1189.31 1238.47C1185.66 1271.8 1181.97 1311.34 1198.91 1339.64C1199.02 1339.81 1199.06 1339.97 1199.15 1340.13C1204.38 1343.15 1209.59 1345.95 1214.54 1348.61C1217.27 1350.06 1219.93 1351.57 1222.56 1353.12C1222.59 1335.55 1227.44 1318.97 1234.85 1303.22C1230.6 1277.23 1210.68 1254.49 1189.31 1238.47ZM1285.08 1336.49C1284.79 1315.81 1276.13 1297.19 1270.9 1277.82C1264.46 1286.95 1258.4 1296.42 1253.4 1306.26C1253.32 1309.03 1252.11 1311.21 1250.32 1312.7C1242.63 1329.79 1238.6 1348.01 1242.04 1367.67C1248.43 1373.98 1253.5 1381.41 1256.56 1390.56C1276.04 1380.6 1285.39 1358.46 1285.08 1336.49ZM1353.19 1517.94C1353.29 1517.92 1353.37 1517.88 1353.47 1517.86C1373.21 1515.41 1388.77 1499.99 1396.23 1482.19C1405.51 1460.04 1403.36 1435.06 1399 1412.05C1397.17 1402.42 1395.2 1392.79 1394.56 1383.07C1382.37 1394.66 1371.87 1408.1 1363.79 1422.86C1353.1 1442.39 1344.75 1465.36 1344.44 1487.86C1344.29 1498.3 1346.77 1509.51 1353.19 1517.94ZM1465.85 1756.2C1466.04 1756.26 1466.22 1756.34 1466.4 1756.43C1472.72 1756.74 1479.85 1756.94 1485.24 1753.25C1489.86 1750.08 1492.05 1744.62 1493.04 1739.29C1494.88 1729.22 1493.04 1718.91 1494.42 1708.9C1485.7 1713.93 1477.29 1719.72 1471.34 1727.89C1465.45 1735.96 1462.57 1746.69 1465.85 1756.2ZM1623.3 2013.69C1626.07 2007.18 1626.97 2000.1 1628.47 1993.18C1618.2 1998.39 1609.22 2006.54 1607.58 2018.51C1607.5 2019.14 1607.3 2019.67 1607.01 2020.12C1607.16 2022.53 1607.06 2024.97 1606.71 2027.4C1614.08 2025.96 1620.31 2020.7 1623.3 2013.69ZM1757.9 2113.67C1754.87 2106.45 1751.03 2099.58 1748.46 2092.17C1747.96 2090.74 1747.47 2089.25 1747.1 2087.75C1740.78 2095.42 1736.73 2104.84 1735.53 2114.79C1734 2127.42 1737.15 2147.41 1752.68 2149.39C1752.98 2149.43 1753.25 2149.49 1753.52 2149.58C1766.09 2142.49 1762.55 2124.68 1757.9 2113.67ZM1588.88 2274.75C1583.81 2272.84 1578.48 2271.51 1573.52 2269.39C1575.44 2274.46 1578.21 2279.24 1582.23 2282.77C1587.91 2287.79 1595.21 2289.5 1602.53 2289.07C1602.71 2281.74 1595.06 2277.09 1588.88 2274.75ZM1587.29 2294.69C1587.24 2294.7 1587.2 2294.72 1587.15 2294.73C1579.72 2295.5 1577.67 2305.23 1575.33 2310.87C1574.09 2313.84 1572.48 2316.59 1570.46 2318.89C1576.95 2318.87 1583.38 2317.46 1589.25 2314.27C1595.47 2310.88 1602.49 2304.24 1604.26 2296.8C1598.51 2297.31 1592.65 2296.67 1587.29 2294.69ZM1598.77 2026.68C1598.85 2026.52 1598.93 2026.36 1599.01 2026.23C1600 2018.49 1598 2010.95 1593.18 2004.6C1590.43 2001 1587.3 1997.72 1584.55 1994.12C1584.1 1993.54 1583.71 1992.92 1583.28 1992.32C1583.26 1992.8 1583.21 1993.28 1583.21 1993.77C1583.26 1998.52 1583.88 2003.38 1584.9 2008C1586.71 2016.26 1591.01 2023.37 1598.77 2026.68ZM1390.65 2039.58C1390.1 2038.97 1389.51 2038.4 1388.91 2037.84C1387.59 2036.62 1386.17 2035.48 1384.69 2034.44C1381.99 2032.55 1379.05 2031.06 1375.96 2029.92C1368.74 2027.26 1361.2 2027.3 1353.69 2028.5C1345.91 2029.76 1338.34 2032.02 1330.52 2033.13C1328 2033.48 1325.47 2033.69 1322.94 2033.75C1331.07 2043.41 1341.64 2051.77 1353.56 2054.98C1367.32 2058.68 1381.12 2052.17 1391 2042.67C1390.72 2041.8 1390.72 2040.85 1391.09 2040.04C1390.93 2039.89 1390.79 2039.73 1390.65 2039.58ZM1231.19 1823.75C1237.36 1824.19 1244.07 1822.02 1249.33 1819.77C1255.91 1816.96 1262.02 1812.7 1266.14 1806.84C1261.51 1805.57 1257.14 1803.68 1253.04 1801.3C1247.63 1810.48 1240.17 1818.18 1231.19 1823.75ZM1252.22 1781.42C1247.6 1779.6 1242.7 1778.47 1238.28 1776.18C1245.02 1787.44 1256.15 1795.98 1268.83 1799.58C1267.39 1791.03 1260.08 1784.53 1252.22 1781.42ZM1169.73 1523.89C1184 1538.29 1205.15 1543.25 1223.93 1535.13C1219.4 1519.85 1208.12 1507.88 1193.91 1500.86C1179.71 1493.84 1164.13 1490.28 1149.77 1483.64C1146.9 1482.31 1144.17 1480.8 1141.49 1479.23C1146.7 1496.15 1157.26 1511.31 1169.73 1523.89Z" fill="#FFBD6E"/>
<path d="M1230.34 1661.56C1230.28 1658.99 1232.82 1655.84 1235.69 1657.45C1248.18 1664.41 1262.73 1665.38 1275.83 1670.75C1287.62 1675.6 1300.8 1685.69 1299.66 1699.92C1299.63 1700.13 1299.58 1700.28 1299.56 1700.47C1299.77 1702.03 1299.21 1703.71 1297.48 1704.64C1283.38 1712.18 1265.68 1710.8 1252.37 1702.21C1238.85 1693.5 1230.76 1677.45 1230.34 1661.56ZM1256.36 1695.56C1266.78 1702.6 1280.53 1703.69 1291.94 1698.67C1292.3 1692.94 1288.13 1687.71 1283.92 1684.29C1279.44 1680.64 1274.16 1678.25 1268.75 1676.4C1258.89 1673.01 1248.45 1671.43 1238.82 1667.5C1240.8 1678.71 1246.75 1689.05 1256.36 1695.56Z" fill="#FFBD6E"/>
<path d="M1521.45 1892.85C1521.5 1884.89 1523.3 1877.22 1526.33 1869.88C1532.04 1856.1 1541.2 1843.96 1545.49 1829.56C1546.4 1826.48 1551.72 1826.4 1552.66 1829.53C1555.64 1839.62 1558.26 1849.81 1560.36 1860.12C1562.3 1869.58 1564.47 1879.65 1562.59 1889.3C1559.51 1905.14 1546.89 1917.75 1531.24 1921.27C1530.94 1921.34 1530.64 1921.37 1530.37 1921.37C1528.26 1922.24 1525.29 1921.45 1524.71 1918.52C1523.02 1910.05 1521.39 1901.53 1521.45 1892.85ZM1555.33 1885.29C1556.24 1876.66 1554.05 1867.75 1552.29 1859.34C1551.16 1854 1549.87 1848.69 1548.48 1843.39C1544.13 1852.77 1538.49 1861.57 1534.3 1871.05C1531.33 1877.77 1529.37 1884.74 1529.18 1892.12C1528.99 1899.2 1530.2 1906.24 1531.56 1913.19C1544.15 1909.73 1553.97 1898.28 1555.33 1885.29Z" fill="#FFBD6E"/>
<path d="M2769.92 1436.83C2728.68 1415.9 2713.89 1363.3 2707.05 1321.15C2698.72 1269.86 2700.67 1216.52 2703.37 1164.83C2704.73 1138.72 2706.86 1112.67 2709.71 1086.68C2709.72 1086.64 2709.73 1086.6 2709.74 1086.57C2711.41 1078.8 2718.45 1074.47 2724.41 1070C2731.2 1064.9 2737.46 1059.26 2742.95 1052.78C2753.6 1040.21 2761.55 1025.62 2766.68 1009.98C2779.09 972.187 2772.88 933.118 2760.82 896.193C2754.19 875.883 2747.36 854.468 2752.52 833.231C2752.9 831.918 2753.28 830.59 2753.62 829.256C2755.53 821.84 2744.48 818.844 2742.19 826.102C2741.76 827.466 2741.39 828.833 2741.04 830.194C2730.36 865.647 2702 892.066 2681.83 922.209C2671.06 938.312 2662.42 956.037 2659.36 975.317C2656.18 995.487 2658.13 1016.49 2665.4 1035.6C2669.37 1046.03 2674.69 1055.76 2681.46 1064.63C2688.19 1073.44 2697.24 1082.68 2696.53 1094.55C2696.48 1095.36 2696.58 1096.08 2696.78 1096.72C2691.82 1145.11 2689.36 1193.77 2689.68 1242.42C2690.01 1293.23 2694.04 1346.2 2715.77 1392.91C2726.12 1415.15 2741.68 1435.77 2763.94 1447.08C2770.73 1450.52 2776.73 1440.29 2769.92 1436.83ZM2670.11 984.326C2673.58 944.78 2702.02 915.238 2724.57 884.909C2730 877.598 2735.18 870.061 2739.72 862.196C2743.32 888.566 2756.16 914.535 2760.03 940.62C2765.43 977.056 2758.56 1016.59 2733.97 1045.1C2727.93 1052.11 2720.99 1057.74 2713.66 1063.31C2711.6 1064.88 2709.58 1066.51 2707.71 1068.25C2704.71 1035.96 2709.7 1003.28 2722.87 973.527C2725.92 966.618 2715.72 960.579 2712.63 967.541C2699.34 997.578 2693.31 1030.22 2695.43 1062.87C2690.65 1056.52 2685.57 1050.34 2682.07 1043.8C2672.34 1025.69 2668.32 1004.76 2670.11 984.326Z" fill="#FFBD6E"/>
<path d="M2934.86 1113.99C2932.45 1094.6 2921.13 1077.23 2902.41 1070.28C2882.39 1062.84 2858.78 1067.67 2838.86 1073.04C2817 1078.92 2796.01 1088.21 2777.31 1101.01C2758.07 1114.18 2740.83 1131.13 2730.2 1152.09C2721.5 1169.25 2717.69 1186.96 2718.16 1209.67C2718.02 1213.39 2718.49 1215.45 2719.49 1217.76C2726.6 1234.21 2746.75 1242.74 2763.36 1245.83C2782.55 1249.4 2802.34 1247.55 2821.12 1242.58C2859.82 1232.33 2894.44 1207.87 2916.73 1174.6C2928.55 1156.95 2937.55 1135.63 2934.86 1113.99ZM2728.71 1191.12C2729.55 1180.99 2732.29 1170.84 2736.48 1161.58C2744.11 1144.73 2756.31 1130.42 2770.45 1118.65C2799.92 1094.15 2841.51 1076.65 2880.28 1077.87C2899.42 1078.46 2915.34 1088.07 2920.78 1107.05C2922.74 1113.89 2923.08 1120.83 2922.25 1127.66C2899.46 1154.11 2871.99 1176.06 2840.61 1191.62C2823.87 1199.92 2806.12 1206.41 2787.9 1210.58C2777.47 1212.96 2766.71 1214.58 2755.99 1214.54C2750.88 1214.52 2745.78 1214.1 2740.77 1213.19C2736.77 1212.46 2732.86 1211.07 2728.87 1210.37C2728.48 1203.94 2728.2 1197.51 2728.71 1191.12ZM2830.59 1225.99C2812.69 1232.45 2793.37 1236.06 2774.31 1234.4C2765.55 1233.63 2756.56 1231.58 2748.62 1227.71C2745.46 1226.16 2742.6 1224.3 2739.91 1222.25C2744 1222.93 2748.13 1223.25 2751.85 1223.5C2762.74 1224.22 2773.61 1223.24 2784.31 1221.2C2804.3 1217.38 2823.79 1210.41 2842.14 1201.68C2869.87 1188.48 2895.17 1170.33 2916.47 1148.27C2914.64 1152.56 2912.48 1156.71 2910.15 1160.66C2892.41 1190.72 2863.35 1214.14 2830.59 1225.99Z" fill="#FFBD6E"/>
<path d="M2905.72 1102.91C2874.29 1084.12 2836.79 1113.33 2815.94 1135.24C2803.37 1148.44 2792.49 1163.18 2779.42 1175.92C2772.62 1182.56 2765.36 1188.84 2757.39 1194.05C2749.86 1198.97 2741.75 1202.38 2733.64 1206.21C2732.64 1206.69 2733.4 1208.02 2734.35 1207.87C2749.6 1205.4 2763.58 1195.14 2775.2 1185.47C2788.47 1174.44 2800.06 1161.67 2812.47 1149.72C2824.7 1137.95 2837.08 1125.9 2851.74 1117.17C2866.33 1108.47 2885.16 1101.96 2901.25 1110.58C2906.27 1113.27 2910.65 1105.85 2905.72 1102.91Z" fill="#FFBD6E"/>
<path d="M2472.52 1174.6C2494.81 1207.87 2529.43 1232.34 2568.13 1242.58C2586.91 1247.55 2606.7 1249.39 2625.89 1245.82C2642.49 1242.74 2662.64 1234.21 2669.76 1217.76C2670.77 1215.45 2671.23 1213.39 2671.09 1209.67C2671.56 1186.96 2667.75 1169.25 2659.05 1152.09C2648.42 1131.13 2631.18 1114.18 2611.94 1101.01C2593.25 1088.21 2572.25 1078.92 2550.39 1073.04C2530.47 1067.68 2506.86 1062.84 2486.84 1070.28C2468.13 1077.23 2456.8 1094.6 2454.39 1113.99C2451.7 1135.63 2460.69 1156.95 2472.52 1174.6ZM2660.38 1210.37C2656.39 1211.06 2652.48 1212.46 2648.49 1213.19C2643.46 1214.1 2638.36 1214.52 2633.26 1214.54C2622.54 1214.58 2611.78 1212.96 2601.35 1210.58C2583.13 1206.41 2565.38 1199.92 2548.64 1191.62C2517.27 1176.06 2489.79 1154.11 2467 1127.66C2466.17 1120.83 2466.51 1113.89 2468.48 1107.05C2473.91 1088.07 2489.83 1078.46 2508.97 1077.87C2547.74 1076.65 2589.33 1094.15 2618.8 1118.65C2632.94 1130.42 2645.14 1144.73 2652.77 1161.58C2656.96 1170.84 2659.71 1180.99 2660.54 1191.12C2661.05 1197.51 2660.77 1203.94 2660.38 1210.37ZM2479.09 1160.67C2476.76 1156.71 2474.61 1152.56 2472.77 1148.28C2494.07 1170.34 2519.38 1188.48 2547.11 1201.68C2565.46 1210.42 2584.95 1217.39 2604.94 1221.21C2615.64 1223.25 2626.51 1224.22 2637.39 1223.51C2641.12 1223.26 2645.25 1222.94 2649.33 1222.25C2646.64 1224.31 2643.79 1226.17 2640.62 1227.72C2632.68 1231.58 2623.69 1233.63 2614.93 1234.4C2595.87 1236.07 2576.56 1232.47 2558.65 1225.99C2525.89 1214.14 2496.85 1190.72 2479.09 1160.67Z" fill="#FFBD6E"/>
<path d="M2481.95 1098.8C2513.38 1080.01 2550.88 1109.22 2571.74 1131.13C2584.3 1144.33 2595.18 1159.06 2608.25 1171.81C2615.05 1178.45 2622.31 1184.73 2630.28 1189.94C2637.81 1194.86 2645.92 1198.27 2654.03 1202.1C2655.03 1202.58 2654.27 1203.91 2653.33 1203.76C2638.07 1201.29 2624.1 1191.02 2612.47 1181.36C2599.2 1170.32 2587.61 1157.56 2575.2 1145.61C2562.97 1133.84 2550.59 1121.79 2535.93 1113.05C2521.34 1104.35 2502.51 1097.85 2486.42 1106.47C2481.4 1109.16 2477.02 1101.74 2481.95 1098.8Z" fill="#FFBD6E"/>
<path d="M2028.82 2960.78C2054.84 2960.78 2077.42 2965.06 2096.58 2973.64C2116.02 2982.22 2130.88 2994.52 2141.18 3010.51C2151.47 3026.53 2156.61 3045.53 2156.61 3067.57C2156.61 3089.28 2151.47 3108.31 2141.18 3124.6C2130.88 3140.59 2116.02 3152.89 2096.58 3161.47C2077.42 3170.04 2054.84 3174.33 2028.82 3174.33H1961.06V3260.96H1905.31V2960.78H2028.82ZM2026.25 3127.16C2050.55 3127.16 2068.99 3122.01 2081.57 3111.73C2094.15 3101.43 2100.44 3086.72 2100.44 3067.57C2100.44 3048.39 2094.15 3033.68 2081.57 3023.37C2068.99 3013.1 2050.55 3007.95 2026.25 3007.95H1961.06V3127.16H2026.25ZM2309.53 3265.25C2286.37 3265.25 2263.93 3261.98 2242.2 3255.39C2220.76 3248.81 2203.75 3240.09 2191.17 3229.22L2210.47 3185.92C2222.76 3195.63 2237.77 3203.64 2255.5 3209.92C2273.51 3215.94 2291.52 3218.94 2309.53 3218.94C2331.83 3218.94 2348.41 3215.37 2359.28 3208.22C2370.43 3201.07 2376 3191.63 2376 3179.9C2376 3171.32 2372.86 3164.33 2366.57 3158.91C2360.56 3153.19 2352.84 3148.75 2343.41 3145.59C2333.97 3142.47 2321.11 3138.89 2304.81 3134.87C2281.94 3129.45 2263.36 3124.03 2249.06 3118.58C2235.06 3113.16 2222.91 3104.73 2212.61 3093.3C2202.61 3081.57 2197.6 3065.84 2197.6 3046.13C2197.6 3029.54 2202.04 3014.53 2210.9 3001.1C2220.05 2987.37 2233.63 2976.5 2251.64 2968.5C2269.93 2960.49 2292.23 2956.49 2318.54 2956.49C2336.83 2956.49 2354.84 2958.77 2372.57 2963.35C2390.3 2967.92 2405.59 2974.5 2418.46 2983.08L2400.87 3026.38C2387.72 3018.67 2374 3012.8 2359.7 3008.81C2345.41 3004.79 2331.54 3002.8 2318.11 3002.8C2296.09 3002.8 2279.65 3006.52 2268.79 3013.96C2258.21 3021.38 2252.92 3031.24 2252.92 3043.54C2252.92 3052.11 2255.93 3059.11 2261.93 3064.56C2268.22 3069.98 2276.08 3074.27 2285.52 3077.43C2294.95 3080.55 2307.82 3084.13 2324.11 3088.15C2346.41 3093.3 2364.71 3098.72 2379 3104.44C2393.3 3109.86 2405.45 3118.31 2415.45 3129.75C2425.75 3141.19 2430.89 3156.61 2430.89 3176.06C2430.89 3192.65 2426.32 3207.66 2417.17 3221.09C2408.31 3234.52 2394.73 3245.24 2376.43 3253.25C2358.13 3261.26 2335.83 3265.25 2309.53 3265.25ZM2626.4 3265.25C2595.81 3265.25 2568.22 3258.67 2543.64 3245.54C2519.05 3232.08 2499.75 3213.64 2485.74 3190.2C2471.74 3166.47 2464.73 3140.02 2464.73 3110.87C2464.73 3081.71 2471.74 3055.42 2485.74 3031.95C2499.75 3008.25 2519.05 2989.78 2543.64 2976.64C2568.22 2963.21 2595.81 2956.49 2626.4 2956.49C2656.99 2956.49 2684.58 2963.21 2709.17 2976.64C2733.76 2989.78 2753.05 3008.1 2767.06 3031.53C2781.07 3054.97 2788.08 3081.42 2788.08 3110.87C2788.08 3140.32 2781.07 3166.77 2767.06 3190.2C2753.05 3213.64 2733.76 3232.08 2709.17 3245.54C2684.58 3258.67 2656.99 3265.25 2626.4 3265.25ZM2626.4 3216.35C2646.42 3216.35 2664.43 3211.94 2680.44 3203.07C2696.45 3193.93 2709.03 3181.33 2718.18 3165.34C2727.32 3149.05 2731.9 3130.88 2731.9 3110.87C2731.9 3090.86 2727.32 3072.84 2718.18 3056.85C2709.03 3040.53 2696.45 3027.96 2680.44 3019.09C2664.43 3009.94 2646.42 3005.39 2626.4 3005.39C2606.39 3005.39 2588.38 3009.94 2572.37 3019.09C2556.36 3027.96 2543.78 3040.53 2534.63 3056.85C2525.48 3072.84 2520.91 3090.86 2520.91 3110.87C2520.91 3130.88 2525.48 3149.05 2534.63 3165.34C2543.78 3181.33 2556.36 3193.93 2572.37 3203.07C2588.38 3211.94 2606.39 3216.35 2626.4 3216.35ZM3052.14 3107.44H3104.91V3227.07C3089.46 3239.37 3071.44 3248.81 3050.86 3255.39C3030.28 3261.98 3009.14 3265.25 2987.4 3265.25C2956.81 3265.25 2929.22 3258.67 2904.63 3245.54C2880.05 3232.08 2860.75 3213.64 2846.74 3190.2C2832.73 3166.77 2825.73 3140.32 2825.73 3110.87C2825.73 3081.42 2832.73 3054.97 2846.74 3031.53C2860.75 3008.1 2880.05 2989.78 2904.63 2976.64C2929.51 2963.21 2957.38 2956.49 2988.26 2956.49C3013.43 2956.49 3036.3 2960.63 3056.88 2968.92C3077.46 2977.21 3094.76 2989.37 3108.76 3005.39L3073.58 3039.69C3050.71 3016.82 3023.14 3005.39 2990.82 3005.39C2969.67 3005.39 2950.81 3009.79 2934.22 3018.67C2917.93 3027.54 2905.06 3039.96 2895.63 3055.98C2886.48 3071.98 2881.91 3090.29 2881.91 3110.87C2881.91 3130.88 2886.48 3148.9 2895.63 3164.89C2905.06 3180.91 2917.93 3193.48 2934.22 3202.65C2950.81 3211.8 2969.53 3216.35 2990.41 3216.35C3013.85 3216.35 3034.42 3211.23 3052.14 3200.93V3107.44Z" fill="#FFBD6E"/>
<path d="M2108.68 3490.57C2118.98 3490.57 2127.92 3492.27 2135.5 3495.66C2143.19 3499.06 2149.08 3503.91 2153.15 3510.26C2157.23 3516.6 2159.26 3524.13 2159.26 3532.83C2159.26 3541.44 2157.23 3548.97 2153.15 3555.4C2149.08 3561.75 2143.19 3566.63 2135.5 3570.03C2127.92 3573.42 2118.98 3575.12 2108.68 3575.12H2081.86V3609.4H2059.79V3490.57H2108.68ZM2107.66 3556.45C2117.28 3556.45 2124.58 3554.39 2129.56 3550.31C2134.54 3546.26 2137.03 3540.42 2137.03 3532.83C2137.03 3525.27 2134.54 3519.43 2129.56 3515.35C2124.58 3511.27 2117.28 3509.24 2107.66 3509.24H2081.86V3556.45H2107.66ZM2290.75 3518.74V3609.4H2270.55V3597.84C2267.16 3601.92 2262.91 3605.11 2257.82 3607.37C2252.73 3609.51 2247.24 3610.59 2241.35 3610.59C2229.25 3610.59 2219.68 3607.25 2212.67 3600.58C2205.76 3593.79 2202.31 3583.75 2202.31 3570.53V3518.74H2223.53V3567.64C2223.53 3575.77 2225.34 3581.91 2228.96 3585.96C2232.7 3589.92 2237.96 3591.91 2244.75 3591.91C2252.33 3591.91 2258.33 3589.59 2262.74 3584.95C2267.27 3580.21 2269.53 3573.42 2269.53 3564.58V3518.74H2290.75ZM2360.8 3532C2366.91 3522.5 2377.66 3517.73 2393.05 3517.73V3537.92C2391.24 3537.59 2389.6 3537.42 2388.13 3537.42C2379.87 3537.42 2373.42 3539.86 2368.78 3544.71C2364.14 3549.48 2361.82 3556.39 2361.82 3565.44V3609.4H2340.6V3518.74H2360.8V3532ZM2484.55 3517.73C2495.98 3517.73 2505.15 3521.07 2512.05 3527.74C2518.96 3534.41 2522.41 3544.32 2522.41 3557.46V3609.4H2501.19V3560.17C2501.19 3552.25 2499.32 3546.29 2495.59 3542.33C2491.85 3538.28 2486.53 3536.22 2479.63 3536.22C2471.82 3536.22 2465.65 3538.61 2461.13 3543.37C2456.6 3547.99 2454.34 3554.75 2454.34 3563.56V3609.4H2433.12V3518.74H2453.32V3530.45C2456.83 3526.28 2461.24 3523.09 2466.56 3520.95C2471.88 3518.8 2477.88 3517.73 2484.55 3517.73ZM2571.39 3518.74H2592.61V3609.4H2571.39V3518.74ZM2582.08 3503.82C2578.24 3503.82 2575.01 3502.63 2572.41 3500.25C2569.81 3497.75 2568.5 3494.71 2568.5 3491.08C2568.5 3487.44 2569.81 3484.47 2572.41 3482.08C2575.01 3479.58 2578.24 3478.36 2582.08 3478.36C2585.93 3478.36 2589.16 3479.52 2591.76 3481.9C2594.36 3484.17 2595.66 3487.06 2595.66 3490.57C2595.66 3494.29 2594.36 3497.48 2591.76 3500.07C2589.27 3502.57 2586.05 3503.82 2582.08 3503.82ZM2756.94 3517.73C2768.37 3517.73 2777.42 3521.07 2784.1 3527.74C2790.77 3534.32 2794.11 3544.21 2794.11 3557.46V3609.4H2772.89V3560.17C2772.89 3552.25 2771.14 3546.29 2767.63 3542.33C2764.12 3538.28 2759.09 3536.22 2752.52 3536.22C2745.39 3536.22 2739.68 3538.61 2735.38 3543.37C2731.08 3547.99 2728.93 3554.69 2728.93 3563.38V3609.4H2707.71V3560.17C2707.71 3552.25 2705.96 3546.29 2702.45 3542.33C2698.94 3538.28 2693.9 3536.22 2687.34 3536.22C2680.1 3536.22 2674.33 3538.55 2670.03 3543.19C2665.84 3547.84 2663.75 3554.57 2663.75 3563.38V3609.4H2642.53V3518.74H2662.73V3530.3C2666.12 3526.22 2670.37 3523.09 2675.46 3520.95C2680.55 3518.8 2686.21 3517.73 2692.43 3517.73C2699.22 3517.73 2705.22 3519.04 2710.43 3521.63C2715.75 3524.13 2719.93 3527.86 2722.99 3532.83C2726.72 3528.09 2731.53 3524.4 2737.42 3521.81C2743.3 3519.1 2749.81 3517.73 2756.94 3517.73ZM2877.92 3517.73C2891.28 3517.73 2901.46 3520.95 2908.48 3527.41C2915.61 3533.75 2919.17 3543.37 2919.17 3556.27V3609.4H2899.14V3598.35C2896.54 3602.31 2892.81 3605.37 2887.94 3607.52C2883.19 3609.57 2877.41 3610.59 2870.62 3610.59C2863.83 3610.59 2857.89 3609.45 2852.8 3607.19C2847.71 3604.81 2843.75 3601.59 2840.92 3597.51C2838.2 3593.31 2836.84 3588.64 2836.84 3583.43C2836.84 3575.27 2839.84 3568.77 2845.84 3563.89C2851.95 3558.92 2861.52 3556.45 2874.53 3556.45H2897.95V3555.08C2897.95 3548.73 2896.03 3543.88 2892.18 3540.48C2888.45 3537.09 2882.85 3535.39 2875.38 3535.39C2870.29 3535.39 2865.25 3536.16 2860.27 3537.77C2855.4 3539.35 2851.27 3541.56 2847.88 3544.38L2839.56 3528.93C2844.31 3525.32 2850.03 3522.53 2856.71 3520.62C2863.38 3518.68 2870.46 3517.73 2877.92 3517.73ZM2875.04 3595.13C2880.36 3595.13 2885.05 3593.94 2889.13 3591.56C2893.31 3589.08 2896.26 3585.57 2897.95 3581.04V3570.53H2876.06C2863.83 3570.53 2857.72 3574.55 2857.72 3582.56C2857.72 3586.43 2859.25 3589.47 2862.31 3591.74C2865.36 3594 2869.61 3595.13 2875.04 3595.13ZM1544.11 3816.58C1534.94 3816.58 1526.06 3815.27 1517.46 3812.68C1508.97 3810.06 1502.24 3806.63 1497.26 3802.31L1504.9 3785.16C1509.76 3789.03 1515.71 3792.19 1522.72 3794.69C1529.85 3797.04 1536.98 3798.23 1544.11 3798.23C1552.94 3798.23 1559.5 3796.83 1563.8 3794C1568.21 3791.18 1570.42 3787.42 1570.42 3782.81C1570.42 3779.41 1569.18 3776.64 1566.69 3774.47C1564.31 3772.21 1561.25 3770.45 1557.52 3769.23C1553.79 3767.98 1548.69 3766.55 1542.24 3764.97C1533.19 3762.82 1525.83 3760.68 1520.18 3758.54C1514.63 3756.36 1509.82 3753.03 1505.75 3748.5C1501.79 3743.85 1499.81 3737.63 1499.81 3729.83C1499.81 3723.28 1501.56 3717.32 1505.07 3712.02C1508.69 3706.57 1514.06 3702.28 1521.19 3699.12C1528.44 3695.94 1537.26 3694.36 1547.67 3694.36C1554.92 3694.36 1562.05 3695.25 1569.06 3697.07C1576.08 3698.89 1582.13 3701.48 1587.23 3704.87L1580.27 3722.02C1575.06 3718.96 1569.63 3716.66 1563.97 3715.06C1558.31 3713.48 1552.82 3712.7 1547.5 3712.7C1538.79 3712.7 1532.28 3714.16 1527.98 3717.11C1523.8 3720.06 1521.7 3723.96 1521.7 3728.81C1521.7 3732.21 1522.89 3734.98 1525.27 3737.12C1527.76 3739.3 1530.87 3741 1534.6 3742.22C1538.34 3743.47 1543.43 3744.9 1549.88 3746.47C1558.71 3748.5 1565.95 3750.64 1571.61 3752.91C1577.27 3755.08 1582.08 3758.42 1586.04 3762.94C1590.11 3767.47 1592.15 3773.57 1592.15 3781.26C1592.15 3787.84 1590.34 3793.77 1586.72 3799.1C1583.21 3804.4 1577.83 3808.66 1570.59 3811.81C1563.35 3815 1554.52 3816.58 1544.11 3816.58ZM1721.82 3724.23V3814.88H1701.62V3803.33C1698.22 3807.41 1693.98 3810.59 1688.89 3812.86C1683.8 3815 1678.31 3816.07 1672.42 3816.07C1660.31 3816.07 1650.75 3812.74 1643.73 3806.07C1636.83 3799.28 1633.38 3789.24 1633.38 3776.02V3724.23H1654.6V3773.13C1654.6 3781.26 1656.41 3787.39 1660.03 3791.44C1663.76 3795.4 1669.03 3797.4 1675.82 3797.4C1683.4 3797.4 1689.4 3795.08 1693.81 3790.43C1698.34 3785.7 1700.6 3778.91 1700.6 3770.06V3724.23H1721.82ZM1860.45 3688.94V3814.88H1840.08V3803.18C1836.57 3807.47 1832.21 3810.68 1827.01 3812.86C1821.91 3815 1816.26 3816.07 1810.03 3816.07C1801.32 3816.07 1793.45 3814.14 1786.44 3810.29C1779.53 3806.45 1774.1 3801 1770.14 3794C1766.18 3786.86 1764.2 3778.73 1764.2 3769.55C1764.2 3760.38 1766.18 3752.31 1770.14 3745.28C1774.1 3738.26 1779.53 3732.84 1786.44 3728.99C1793.45 3725.15 1801.32 3723.22 1810.03 3723.22C1816.03 3723.22 1821.52 3724.23 1826.5 3726.28C1831.48 3728.31 1835.72 3731.38 1839.23 3735.43V3688.94H1860.45ZM1812.58 3797.91C1817.67 3797.91 1822.25 3796.77 1826.33 3794.51C1830.4 3792.13 1833.63 3788.79 1836 3784.5C1838.38 3780.19 1839.57 3775.21 1839.57 3769.55C1839.57 3763.9 1838.38 3758.92 1836 3754.6C1833.63 3750.32 1830.4 3747.04 1826.33 3744.78C1822.25 3742.39 1817.67 3741.2 1812.58 3741.2C1807.49 3741.2 1802.9 3742.39 1798.83 3744.78C1794.75 3747.04 1791.53 3750.32 1789.15 3754.6C1786.78 3758.92 1785.59 3763.9 1785.59 3769.55C1785.59 3775.21 1786.78 3780.19 1789.15 3784.5C1791.53 3788.79 1794.75 3792.13 1798.83 3794.51C1802.9 3796.77 1807.49 3797.91 1812.58 3797.91ZM1999.05 3688.94V3814.88H1978.68V3803.18C1975.17 3807.47 1970.82 3810.68 1965.61 3812.86C1960.52 3815 1954.86 3816.07 1948.64 3816.07C1939.92 3816.07 1932.06 3814.14 1925.04 3810.29C1918.14 3806.45 1912.71 3801 1908.74 3794C1904.78 3786.86 1902.8 3778.73 1902.8 3769.55C1902.8 3760.38 1904.78 3752.31 1908.74 3745.28C1912.71 3738.26 1918.14 3732.84 1925.04 3728.99C1932.06 3725.15 1939.92 3723.22 1948.64 3723.22C1954.63 3723.22 1960.12 3724.23 1965.1 3726.28C1970.08 3728.31 1974.32 3731.38 1977.83 3735.43V3688.94H1999.05ZM1951.18 3797.91C1956.27 3797.91 1960.86 3796.77 1964.93 3794.51C1969.01 3792.13 1972.23 3788.79 1974.61 3784.5C1976.98 3780.19 1978.17 3775.21 1978.17 3769.55C1978.17 3763.9 1976.98 3758.92 1974.61 3754.6C1972.23 3750.32 1969.01 3747.04 1964.93 3744.78C1960.86 3742.39 1956.27 3741.2 1951.18 3741.2C1946.09 3741.2 1941.51 3742.39 1937.43 3744.78C1933.36 3747.04 1930.13 3750.32 1927.76 3754.6C1925.38 3758.92 1924.19 3763.9 1924.19 3769.55C1924.19 3775.21 1925.38 3780.19 1927.76 3784.5C1930.13 3788.79 1933.36 3792.13 1937.43 3794.51C1941.51 3796.77 1946.09 3797.91 1951.18 3797.91ZM2100.31 3723.22C2111.74 3723.22 2120.91 3726.55 2127.81 3733.22C2134.71 3739.89 2138.16 3749.81 2138.16 3762.94V3814.88H2116.95V3765.65C2116.95 3757.73 2115.08 3751.78 2111.34 3747.81C2107.61 3743.76 2102.29 3741.71 2095.39 3741.71C2087.58 3741.71 2081.41 3744.09 2076.89 3748.86C2072.36 3753.47 2070.1 3760.23 2070.1 3769.05V3814.88H2048.88V3688.94H2070.1V3734.77C2073.6 3731.02 2077.9 3728.19 2083 3726.28C2088.2 3724.23 2093.97 3723.22 2100.31 3723.22ZM2221.78 3723.22C2235.13 3723.22 2245.31 3726.43 2252.33 3732.89C2259.46 3739.24 2263.03 3748.86 2263.03 3761.75V3814.88H2243V3803.83C2240.39 3807.79 2236.66 3810.86 2231.79 3813C2227.04 3815.06 2221.27 3816.07 2214.48 3816.07C2207.69 3816.07 2201.75 3814.94 2196.65 3812.68C2191.56 3810.29 2187.6 3807.08 2184.77 3803C2182.06 3798.8 2180.7 3794.12 2180.7 3788.91C2180.7 3780.75 2183.7 3774.26 2189.69 3769.38C2195.81 3764.4 2205.37 3761.93 2218.38 3761.93H2241.81V3760.56C2241.81 3754.22 2239.88 3749.36 2236.04 3745.97C2232.3 3742.57 2226.7 3740.88 2219.23 3740.88C2214.14 3740.88 2209.1 3741.65 2204.12 3743.26C2199.26 3744.84 2195.13 3747.04 2191.73 3749.87L2183.41 3734.41C2188.17 3730.81 2193.88 3728.01 2200.56 3726.1C2207.23 3724.17 2214.31 3723.22 2221.78 3723.22ZM2218.89 3800.62C2224.21 3800.62 2228.91 3799.42 2232.98 3797.04C2237.17 3794.57 2240.11 3791.06 2241.81 3786.53V3776.02H2219.91C2207.69 3776.02 2201.58 3780.04 2201.58 3788.05C2201.58 3791.92 2203.1 3794.96 2206.16 3797.22C2209.22 3799.48 2213.46 3800.62 2218.89 3800.62ZM2438.85 3816.58C2426.74 3816.58 2415.82 3813.99 2406.09 3808.78C2396.36 3803.44 2388.72 3796.15 2383.17 3786.86C2377.63 3777.48 2374.85 3767.02 2374.85 3755.47C2374.85 3743.91 2377.63 3733.52 2383.17 3724.23C2388.72 3714.85 2396.36 3707.55 2406.09 3702.34C2415.82 3697.01 2426.74 3694.36 2438.85 3694.36C2450.96 3694.36 2461.88 3697.01 2471.61 3702.34C2481.34 3707.55 2488.98 3714.79 2494.53 3724.05C2500.07 3733.34 2502.84 3743.82 2502.84 3755.47C2502.84 3767.11 2500.07 3777.6 2494.53 3786.86C2488.98 3796.15 2481.34 3803.44 2471.61 3808.78C2461.88 3813.99 2450.96 3816.58 2438.85 3816.58ZM2438.85 3797.22C2446.77 3797.22 2453.9 3795.46 2460.24 3791.95C2466.58 3788.35 2471.55 3783.37 2475.18 3777.03C2478.8 3770.57 2480.61 3763.39 2480.61 3755.47C2480.61 3747.55 2478.8 3740.43 2475.18 3734.09C2471.55 3727.62 2466.58 3722.65 2460.24 3719.14C2453.9 3715.53 2446.77 3713.72 2438.85 3713.72C2430.93 3713.72 2423.8 3715.53 2417.46 3719.14C2411.12 3722.65 2406.14 3727.62 2402.52 3734.09C2398.9 3740.43 2397.09 3747.55 2397.09 3755.47C2397.09 3763.39 2398.9 3770.57 2402.52 3777.03C2406.14 3783.37 2411.12 3788.35 2417.46 3791.95C2423.8 3795.46 2430.93 3797.22 2438.85 3797.22ZM2698.43 3754.1H2719.3V3801.48C2713.19 3806.33 2706.06 3810.06 2697.92 3812.68C2689.77 3815.27 2681.39 3816.58 2672.79 3816.58C2660.68 3816.58 2649.76 3813.99 2640.03 3808.78C2630.3 3803.44 2622.66 3796.15 2617.12 3786.86C2611.57 3777.6 2608.8 3767.11 2608.8 3755.47C2608.8 3743.82 2611.57 3733.34 2617.12 3724.05C2622.66 3714.79 2630.3 3707.55 2640.03 3702.34C2649.88 3697.01 2660.91 3694.36 2673.13 3694.36C2683.09 3694.36 2692.14 3696 2700.29 3699.27C2708.44 3702.55 2715.29 3707.37 2720.83 3713.72L2706.91 3727.3C2697.86 3718.24 2686.94 3713.72 2674.15 3713.72C2665.78 3713.72 2658.31 3715.47 2651.74 3718.99C2645.29 3722.47 2640.2 3727.42 2636.47 3733.73C2632.85 3740.07 2631.03 3747.31 2631.03 3755.47C2631.03 3763.39 2632.85 3770.51 2636.47 3776.85C2640.2 3783.19 2645.29 3788.17 2651.74 3791.8C2658.31 3795.4 2665.72 3797.22 2673.98 3797.22C2683.26 3797.22 2691.41 3795.2 2698.43 3791.12V3754.1ZM2788.64 3737.48C2794.75 3727.98 2805.5 3723.22 2820.89 3723.22V3743.41C2819.08 3743.08 2817.44 3742.9 2815.97 3742.9C2807.71 3742.9 2801.26 3745.34 2796.62 3750.2C2791.98 3754.96 2789.66 3761.87 2789.66 3770.92V3814.88H2768.44V3724.23H2788.64V3737.48ZM2895.09 3723.22C2908.44 3723.22 2918.63 3726.43 2925.64 3732.89C2932.77 3739.24 2936.34 3748.86 2936.34 3761.75V3814.88H2916.31V3803.83C2913.71 3807.79 2909.97 3810.86 2905.1 3813C2900.35 3815.06 2894.58 3816.07 2887.79 3816.07C2881 3816.07 2875.06 3814.94 2869.97 3812.68C2864.87 3810.29 2860.91 3807.08 2858.08 3803C2855.37 3798.8 2854.01 3794.12 2854.01 3788.91C2854.01 3780.75 2857.01 3774.26 2863.01 3769.38C2869.12 3764.4 2878.68 3761.93 2891.69 3761.93H2915.12V3760.56C2915.12 3754.22 2913.2 3749.36 2909.35 3745.97C2905.61 3742.57 2900.01 3740.88 2892.54 3740.88C2887.45 3740.88 2882.42 3741.65 2877.44 3743.26C2872.57 3744.84 2868.44 3747.04 2865.04 3749.87L2856.73 3734.41C2861.48 3730.81 2867.19 3728.01 2873.87 3726.1C2880.55 3724.17 2887.62 3723.22 2895.09 3723.22ZM2892.2 3800.62C2897.52 3800.62 2902.22 3799.42 2906.29 3797.04C2910.48 3794.57 2913.42 3791.06 2915.12 3786.53V3776.02H2893.22C2881 3776.02 2874.89 3780.04 2874.89 3788.05C2874.89 3791.92 2876.42 3794.96 2879.47 3797.22C2882.53 3799.48 2886.77 3800.62 2892.2 3800.62ZM3100.06 3723.22C3111.47 3723.22 3120.52 3726.55 3127.22 3733.22C3133.89 3739.8 3137.23 3749.69 3137.23 3762.94V3814.88H3115.99V3765.65C3115.99 3757.73 3114.27 3751.78 3110.75 3747.81C3107.24 3743.76 3102.2 3741.71 3095.62 3741.71C3088.5 3741.71 3082.79 3744.09 3078.5 3748.86C3074.18 3753.47 3072.04 3760.17 3072.04 3768.87V3814.88H3050.83V3765.65C3050.83 3757.73 3049.08 3751.78 3045.56 3747.81C3042.05 3743.76 3037.01 3741.71 3030.46 3741.71C3023.2 3741.71 3017.45 3744.03 3013.13 3748.68C3008.96 3753.32 3006.85 3760.05 3006.85 3768.87V3814.88H2985.64V3724.23H3005.83V3735.78C3009.23 3731.7 3013.49 3728.58 3018.58 3726.43C3023.67 3724.29 3029.33 3723.22 3035.56 3723.22C3042.35 3723.22 3048.33 3724.53 3053.54 3727.12C3058.84 3729.62 3063.04 3733.34 3066.11 3738.31C3069.83 3733.58 3074.66 3729.89 3080.52 3727.3C3086.42 3724.59 3092.91 3723.22 3100.06 3723.22ZM3186.39 3724.23H3207.63V3814.88H3186.39V3724.23ZM3197.11 3709.31C3193.24 3709.31 3190.03 3708.12 3187.44 3705.73C3184.82 3703.23 3183.53 3700.2 3183.53 3696.56C3183.53 3692.93 3184.82 3689.95 3187.44 3687.57C3190.03 3685.07 3193.24 3683.85 3197.11 3683.85C3200.96 3683.85 3204.17 3685.01 3206.76 3687.39C3209.38 3689.65 3210.69 3692.54 3210.69 3696.06C3210.69 3699.78 3209.38 3702.97 3206.76 3705.56C3204.29 3708.06 3201.08 3709.31 3197.11 3709.31ZM3308.97 3723.22C3320.41 3723.22 3329.58 3726.55 3336.49 3733.22C3343.37 3739.89 3346.82 3749.81 3346.82 3762.94V3814.88H3325.62V3765.65C3325.62 3757.73 3323.74 3751.78 3320.02 3747.81C3316.27 3743.76 3310.97 3741.71 3304.06 3741.71C3296.25 3741.71 3290.09 3744.09 3285.56 3748.86C3281.04 3753.47 3278.77 3760.23 3278.77 3769.05V3814.88H3257.54V3724.23H3277.73V3735.93C3281.24 3731.76 3285.65 3728.58 3290.98 3726.43C3296.31 3724.29 3302.3 3723.22 3308.97 3723.22ZM3430.44 3723.22C3443.79 3723.22 3453.97 3726.43 3461 3732.89C3468.12 3739.24 3471.69 3748.86 3471.69 3761.75V3814.88H3451.65V3803.83C3449.06 3807.79 3445.33 3810.86 3440.45 3813C3435.72 3815.06 3429.94 3816.07 3423.15 3816.07C3416.36 3816.07 3410.4 3814.94 3405.31 3812.68C3400.22 3810.29 3396.26 3807.08 3393.43 3803C3390.72 3798.8 3389.38 3794.12 3389.38 3788.91C3389.38 3780.75 3392.36 3774.26 3398.37 3769.38C3404.48 3764.4 3414.04 3761.93 3427.05 3761.93H3450.49V3760.56C3450.49 3754.22 3448.55 3749.36 3444.71 3745.97C3440.96 3742.57 3435.36 3740.88 3427.88 3740.88C3422.79 3740.88 3417.76 3741.65 3412.78 3743.26C3407.93 3744.84 3403.79 3747.04 3400.4 3749.87L3392.09 3734.41C3396.82 3730.81 3402.54 3728.01 3409.21 3726.1C3415.91 3724.17 3422.97 3723.22 3430.44 3723.22ZM3427.56 3800.62C3432.89 3800.62 3437.56 3799.42 3441.64 3797.04C3445.84 3794.57 3448.79 3791.06 3450.49 3786.53V3776.02H3428.57C3416.36 3776.02 3410.25 3780.04 3410.25 3788.05C3410.25 3791.92 3411.77 3794.96 3414.84 3797.22C3417.88 3799.48 3422.14 3800.62 3427.56 3800.62Z" fill="#FFBD6E"/>
</svg>
